<svg id="Layer_1" data-name="Layer 1" xmlns="http://www.w3.org/2000/svg" xmlns:xlink="http://www.w3.org/1999/xlink" viewBox="0 0 1500 1000"><defs><style>.cls-1,.cls-12,.cls-13,.cls-25{fill:none;}.cls-2{clip-path:url(#clip-path);}.cls-3{fill:#012a87;}.cls-4,.cls-8{fill:#dc171d;}.cls-10,.cls-11,.cls-22,.cls-5{fill:#fff;}.cls-15,.cls-16,.cls-17,.cls-18,.cls-19,.cls-20,.cls-21,.cls-23,.cls-6{fill:#f9d90f;}.cls-10,.cls-11,.cls-12,.cls-13,.cls-14,.cls-15,.cls-16,.cls-17,.cls-18,.cls-19,.cls-20,.cls-21,.cls-22,.cls-25,.cls-6,.cls-7,.cls-8,.cls-9{stroke:#000;}.cls-10,.cls-11,.cls-12,.cls-13,.cls-22,.cls-25,.cls-6,.cls-8,.cls-9{stroke-miterlimit:15.12;}.cls-6,.cls-8{stroke-width:0.89px;}.cls-7{fill:#bc715f;stroke-miterlimit:7.48;stroke-width:0.89px;}.cls-9{fill:#62afe1;}.cls-25,.cls-9{stroke-width:0.89px;}.cls-10{stroke-linecap:round;}.cls-10,.cls-11,.cls-13{stroke-width:2px;}.cls-12{stroke-width:2.22px;}.cls-14{fill:#008830;}.cls-14,.cls-17,.cls-18{stroke-miterlimit:7.05;}.cls-15{stroke-miterlimit:6.88;}.cls-16{stroke-miterlimit:6.88;}.cls-19{stroke-miterlimit:8.03;}.cls-20{stroke-miterlimit:7.85;}.cls-21{stroke-miterlimit:7.84;}.cls-22{stroke-width:1.78px;}.cls-24{fill:#f9b60f;}</style><clipPath id="clip-path"><rect class="cls-1" width="1500" height="1000"/></clipPath></defs><g class="cls-2"><path class="cls-3" d="M0,0H1500V1000H0Z"/><path class="cls-4" d="M0,0H1500V500H0Z"/><path class="cls-5" d="M0,0V1000L666.67,500Z"/><path class="cls-6" d="M336.79,377.44l.2-7.74a13,13,0,0,1,.67-13.74s-10.25-5.42-7.87-13.91c0,0-9.26-2.37-8.58-12.56,0,0-10-.7-11-9.21,0,0-10,1.64-14.41-6.66,0,0-9.76,1.91-12.51-4.93,0,0-9.49,3.29-15.11-4.75,0,0-10,4-14.22-3.55-4.14,7.57-14.16,3.55-14.16,3.55-5.56,8-15.12,4.68-15.12,4.68-2.65,6.87-12.39,4.92-12.39,4.92-4.38,8.3-14.37,6.65-14.37,6.65-1,8.49-11,9.19-11,9.19a11.66,11.66,0,0,1-8.46,12.54c2.44,8.49-7.8,13.89-7.8,13.89a12.85,12.85,0,0,1,.84,13.73l-.24,7.14,165.57.76Z"/><path class="cls-7" d="M254.22,330.78c4.44,4.48.29,6.93-3.8,4.63-10.12-7.66-21.94-11.9-38.2-7.28-23.36.09-48.18-1.32-59.53,11.08-.81,2.39-7.15,11.4,17.36-1.82-1.53,9.14,9.87,1.67,18.69-2.48-6.08,6.35,9.29,7.39,19,1.16-4.77,6.41,3.62,6.23,11.58,6.28,11.64.36,5.21,10.49-14.72,10.91-1.45-.1-7,2.52.5,4.46,3.49.17.65,5,12.73-1.16-.75,3.63,4.43,2.93,11.74.66,4.15,3.26,7.52-.12,11.08-1.82,15.27,6,35.42,12,40.85-8.75,12.74-1.47,23.28-3.34,17.57-8.19,16.6,6.77,17.56,4.16,17.31.82,8,3,17.21,7.08,13.44.47,7.66,1.95,16,2.63,22.57,6.54,6.62,3.43,4.48-2.56,2.92-5.26-3.39-5.42-7.67-7-17.34-7.22-8.2-.17-46.62-10.88-66.61.68h.12c-.35,0-8.31-7.48-8.31-7.48a5.35,5.35,0,0,0,4.21-2.34,74.91,74.91,0,0,0,23.39-2.45c3.55-1.11,5.58,1,5.5,2.57,3.24-5.72-1.25-6.9-4.56-6.66-13.19.74-21.11.05-27.48-1.06-12.64-6.3-27.86,3.37-13.8,11.34Z"/><path d="M257.19,319.59c-2.64.39-5.37.71-6.43,2.54C250.84,319.11,255.33,318.91,257.19,319.59Z"/><ellipse cx="255.79" cy="320.7" rx="1.14" ry="1.17"/><path class="cls-8" d="M112.42,357.27c5.22,29.63,11,60,13.86,91,6.2,45.94-21.74,84.5-10.28,129.88,6.84,21.78,30.79,34.43,52.71,36.94,29.07,5.5,64.22,0,85.44,21.76,21.22-21.74,56.37-16.26,85.44-21.76,21.92-2.51,45.86-15.16,52.71-36.94,11.46-45.38-16.48-83.94-10.28-129.88,2.85-31,8.64-61.37,13.86-91C344.7,385.05,294.14,348.91,254.15,372,214.16,348.91,163.59,385.05,112.42,357.27Z"/><path class="cls-9" d="M131.5,381.2c4.51,24.44,9.51,49.49,12,75.08,5.36,37.9-18.78,69.72-8.88,107.16,5.91,18,26.6,28.41,45.52,30.48,25.12,4.53,55.47,0,73.8,18,18.33-18,48.69-13.43,73.8-18,18.93-2.07,39.61-12.51,45.52-30.48,9.9-37.44-14.23-69.26-8.88-107.16,2.46-25.59,7.47-50.64,12-75.08-44.2,22.92-87.88-6.9-122.42,12.17C219.37,374.3,175.7,404.12,131.5,381.2Z"/><path class="cls-10" d="M229.92,449.73,178.2,485.17v42.68H329.62V485.17L277.9,449.73Z"/><path class="cls-10" d="M165.92,520.78v8.16h5v41.91h166V528.94h5v-8.16Z"/><path class="cls-10" d="M253.91,403.51l-24,23.35v22.87h48V426.86Z"/><path class="cls-10" d="M185.68,491h15.17v24H185.68Z"/><path class="cls-10" d="M228.75,491h15.17v24H228.75Z"/><path class="cls-10" d="M322.15,491H307v24h15.18Z"/><path class="cls-10" d="M279.08,491H263.91v24h15.17Z"/><path class="cls-10" d="M185.68,532.75h15.17v24H185.68Z"/><path class="cls-10" d="M322.15,532.75H307v24h15.18Z"/><path class="cls-10" d="M265.8,531.39H242v39.46H265.8Z"/><path class="cls-10" d="M228.19,520.78H217.53v50.07h10.66Z"/><path class="cls-10" d="M279.63,520.78H290.3v50.07H279.63Z"/><path class="cls-10" d="M294.26,522.5V510.13h-80.7V522.5Z"/><path class="cls-11" d="M229.92,426.86h48"/><path class="cls-11" d="M178.2,485.17H329.62"/><path class="cls-10" d="M162.11,565.62h183.6v13H162.11Z"/><path class="cls-10" d="M263.07,431.81H244.76v13h18.31Z"/><path class="cls-12" d="M219.33,510.13V522.5"/><path class="cls-12" d="M288.5,510.13V522.5"/><path class="cls-12" d="M282.73,510.13V522.5"/><path class="cls-12" d="M277,510.13V522.5"/><path class="cls-12" d="M271.21,510.13V522.5"/><path class="cls-12" d="M265.44,510.13V522.5"/><path class="cls-12" d="M259.68,510.13V522.5"/><path class="cls-12" d="M253.91,510.13V522.5"/><path class="cls-12" d="M248.15,510.13V522.5"/><path class="cls-12" d="M242.38,510.13V522.5"/><path class="cls-12" d="M236.62,510.13V522.5"/><path class="cls-12" d="M230.85,510.13V522.5"/><path class="cls-12" d="M225.09,510.13V522.5"/><path class="cls-13" d="M294.26,511V522.5"/><path class="cls-14" d="M176.13,401.13c11.39,7.27,16.78,14,16.81,20.23C178.76,420.6,165.93,413.93,176.13,401.13Z"/><path class="cls-14" d="M185.3,407.74c11,6.25,17.16,13,19.07,20.34C193.22,430,181.33,424.75,185.3,407.74Z"/><path class="cls-14" d="M171.12,418.47c1.47,12.54-.34,21.55-5.08,27.41-8.17-7.83-11-20.52,5.08-27.41Z"/><path class="cls-14" d="M171.13,418.51c10.31,7.29,15.8,14.66,17,22.11C176.82,441.45,165.5,435.05,171.13,418.51Z"/><path class="cls-14" d="M178,408.47l4.75,3,5.1-.5,2.14,3.52s-.58,7.24-.58,7.9a37.36,37.36,0,0,0,1.57,4.71l-3.47,2.52-9.29,3.81-8.69-7.06-5.48.56-2.41-6.8,2.7-5.81,6.79-4.4Z"/><path class="cls-14" d="M169.06,412.08c-4.47,11.81-10.23,19-17.14,22C148.28,423.35,151.63,410.79,169.06,412.08Z"/><path class="cls-14" d="M169,412.94c-12.39-2.44-20.41-6.93-24.53-13.24C154.45,394.33,167.4,395.54,169,412.94Z"/><path class="cls-14" d="M192.73,413.36c12.57,1.12,21.53-.95,27.25-5.86C211.92,399.56,199.15,397.11,192.73,413.36Z"/><path class="cls-14" d="M192.76,413.37c7.59,10.1,15.12,15.37,22.6,16.34C215.87,418.4,209.14,407.27,192.76,413.37Z"/><path class="cls-14" d="M188.81,419.54c9.46,8.37,14.11,16.3,14.47,23.83C192,443,181.41,435.37,188.81,419.54Z"/><path class="cls-14" d="M184.92,433.41c6.47,10.85,8.49,19.81,6.56,27.09C180.82,456.7,173.06,446.25,184.92,433.41Z"/><path class="cls-14" d="M180.36,432.71c1.44,12.55-.4,21.55-5.17,27.39C167.05,452.24,164.28,439.54,180.36,432.71Z"/><path class="cls-15" d="M172.15,418.64a4.47,4.47,0,0,1-1.75-2.87,5.58,5.58,0,0,1,.36-2.89c.22-.67.39-1.24.38-1.26a1.13,1.13,0,0,0-.37-.11c-.35-.07-.39-.05-1,.53-2.14,2-4.09,2.92-5.43,2.63-1.55-.34-2.14-2.48-1.28-4.64a4.7,4.7,0,0,1,3.86-3.15,3.7,3.7,0,0,1,1.68.16,2.24,2.24,0,0,0,.87.16,6.16,6.16,0,0,0-.84-.6c-2.17-1.37-3.45-3-3.53-4.37a2.82,2.82,0,0,1,1.76-2.59,4.29,4.29,0,0,1,5.5,1.55,5.5,5.5,0,0,1,.68,3.37,5.29,5.29,0,0,0,.12,1.67,1.83,1.83,0,0,1,.4.36l.27.31,1.07-.88a17,17,0,0,1,2.77-1.91,4.08,4.08,0,0,1,3.4-.43c1.58.88,1.58,3.76,0,5.74a4.35,4.35,0,0,1-5,1.45c-.41-.16-1-.36-1.27-.44l-.53-.14.82,1a14,14,0,0,1,2.18,3.52c.81,2.05.4,3.63-1.13,4.31a4.1,4.1,0,0,1-3.91-.53Z"/><path class="cls-16" d="M174.28,409.73a2.5,2.5,0,1,1-1.28-3.5A2.66,2.66,0,0,1,174.28,409.73Z"/><path class="cls-17" d="M183.51,405.32a6.28,6.28,0,0,0,.78,2.9c.31.67.55,1.24.55,1.26a1.24,1.24,0,0,1-.34.14c-.32.1-.37.08-1.05-.46-2.35-1.84-4.36-2.65-5.6-2.25-1.43.47-1.68,2.7-.54,4.82a5,5,0,0,0,4.17,2.89,3.07,3.07,0,0,0,1.58-.29c.46-.18.82-.28.81-.23a6,6,0,0,1-.72.67c-1.87,1.57-2.86,3.28-2.74,4.73a3.15,3.15,0,0,0,2.08,2.49,3.83,3.83,0,0,0,5-2c.39-.93.42-1.65.15-3.47a5.6,5.6,0,0,1-.13-1.72,1.63,1.63,0,0,0,.33-.39l.22-.34,1.15.81a17.26,17.26,0,0,0,2.94,1.72,3.81,3.81,0,0,0,3.32.18c1.39-1,1-4-.86-5.84a4.2,4.2,0,0,0-5.06-1.07c-.36.19-.87.43-1.14.54l-.49.19.63-1.14a13.06,13.06,0,0,0,1.56-3.74c.48-2.15-.15-3.73-1.71-4.29a3.57,3.57,0,0,0-3.55.73,4.35,4.35,0,0,0-1.38,3.17Z"/><path class="cls-18" d="M183.65,411a2.83,2.83,0,0,1,3.53-1.6h0a2.58,2.58,0,0,1,1.06,3.57,2.84,2.84,0,0,1-3.53,1.6h0A2.58,2.58,0,0,1,183.65,411Z"/><path class="cls-19" d="M169.58,432.78a7.33,7.33,0,0,1,.1-3.55c.17-.85.31-1.57.3-1.59a1.67,1.67,0,0,0-.44-.07c-.39,0-.44,0-1.08.81-2.2,2.75-4.29,4.23-5.82,4.1-1.78-.14-2.67-2.64-1.93-5.39a5.86,5.86,0,0,1,4-4.45,3.67,3.67,0,0,1,1.91-.09c.57.08,1,.1,1,0a6.14,6.14,0,0,0-1-.58c-2.58-1.29-4.18-3-4.43-4.69a3.67,3.67,0,0,1,1.71-3.42,4.52,4.52,0,0,1,6.34.93c.7,1,.93,1.79,1.12,4a6.41,6.41,0,0,0,.31,2,2.25,2.25,0,0,1,.49.37l.34.33,1.11-1.24a19.62,19.62,0,0,1,2.91-2.78c1.3-1,2.91-1.46,3.76-1.1,1.88.8,2.18,4.29.6,6.94a5,5,0,0,1-5.52,2.61,14.87,14.87,0,0,0-1.47-.32l-.61-.08,1,1.13a15.72,15.72,0,0,1,2.81,3.88c1.13,2.34.83,4.32-.81,5.4a4.24,4.24,0,0,1-4.28.12,5.12,5.12,0,0,1-2.44-3.27Z"/><path class="cls-19" d="M173.3,424.84c-.49,1.82-2.09,3-3.58,2.58s-2.29-2.2-1.8-4,2.09-3,3.58-2.59S173.79,423,173.3,424.84Z"/><path class="cls-20" d="M185.47,421a7.19,7.19,0,0,0,.19,3.47c.19.82.34,1.52.33,1.54a1.36,1.36,0,0,1-.42.08c-.39,0-.44,0-1.08-.77-2.21-2.63-4.29-4-5.79-3.85-1.73.18-2.54,2.64-1.75,5.31a5.74,5.74,0,0,0,4,4.25,3.74,3.74,0,0,0,1.86,0,2.58,2.58,0,0,1,1-.07,5.89,5.89,0,0,1-1,.59c-2.49,1.33-4,3-4.21,4.69a3.63,3.63,0,0,0,1.76,3.31,4.41,4.41,0,0,0,6.16-1.08c.66-1,.87-1.76,1-3.89a6.24,6.24,0,0,1,.26-2,2.48,2.48,0,0,0,.46-.38l.32-.32,1.12,1.18a19.8,19.8,0,0,0,2.91,2.64c1.3.94,2.88,1.36,3.7,1,1.82-.83,2-4.24.41-6.79a4.83,4.83,0,0,0-5.45-2.41,12.47,12.47,0,0,1-1.43.34l-.6.1,1-1.13a15.17,15.17,0,0,0,2.65-3.86c1.05-2.31.71-4.24-.93-5.25a4.12,4.12,0,0,0-4.18,0,5,5,0,0,0-2.3,3.25Z"/><path class="cls-21" d="M186.61,426.1A3,3,0,1,0,190,429,3.18,3.18,0,0,0,186.61,426.1Z"/><path class="cls-22" d="M354.6,452.32h-6.36v-4.51h-5.41v-5.17h-6.2V409.89l-7.06-12.35-7.06,12.35v32.75h-6.2v5.17H310.9v4.51h-6.36V459l50.06.14Z"/><path class="cls-23" d="M254.47,657.91c25.43.08,56.71-5.11,71.36-12.69L358,642.37l.64,39.26c-27.26,15-90.2,18.26-104,18.15-13.86.11-77.58-3.17-105-18.26l.35-39.28,32.25,2.9c14.65,7.54,46.88,12.77,72.29,12.77h-.07"/><path class="cls-24" d="M149.65,681.52l33.18-7.59-33.07-4.73Z"/><path class="cls-23" d="M66.81,490.45l28.35,9-8.58,45.89-26.83,4.17s-4.53-24.13,7.06-59.11"/><path class="cls-24" d="M59.75,549.53l17.43-24,9.4,19.88Z"/><path class="cls-25" d="M66.81,490.45l28.35,9-8.58,45.89-26.83,4.17s-4.53-24.13,7.06-59.11v0Z"/><path class="cls-25" d="M149.65,681.52,183,673.93"/><path class="cls-25" d="M77.21,525.34l9.37,20"/><path class="cls-24" d="M358.65,681.63,325.47,674l33.07-4.73Z"/><path class="cls-23" d="M441.49,490.55l-28.35,9,8.58,45.89,26.83,4.17s4.53-24.13-7.06-59.11"/><path class="cls-24" d="M448.55,549.64l-17.43-24-9.4,19.88Z"/><path class="cls-25" d="M441.49,490.55l-28.35,9,8.58,45.89,26.83,4.17s4.53-24.13-7.06-59.11v0Z"/><path class="cls-25" d="M358.65,681.63,325.26,674"/><path class="cls-25" d="M431.09,525.44l-9.37,20"/><path class="cls-25" d="M254.47,657.91c25.43.08,56.71-5.11,71.36-12.69L358,642.37l.64,39.26c-27.26,15-90.2,18.26-104,18.15-13.86.11-77.58-3.17-105-18.26l.35-39.28,32.25,2.9c14.65,7.54,46.88,12.77,72.29,12.77h-.07"/><path class="cls-23" d="M458.45,523.62l-27.33,2c-.61,23.15-3.42,111.51-108.94,116.31L325.47,674c128.44,1.34,138.2-108.37,133-150.42"/><path class="cls-25" d="M458.45,523.62l-27.33,2c-.61,23.15-3.42,111.51-108.94,116.31L325.47,674C453.91,675.38,463.67,565.67,458.45,523.62Z"/><path class="cls-23" d="M49.85,523.51l27.33,2C77.79,548.63,80.6,637,186.12,641.79l-3.29,32.14c-128.44,1.34-138.2-108.37-133-150.42"/><path class="cls-25" d="M49.85,523.51l27.33,2C77.79,548.63,80.6,637,186.12,641.79l-3.29,32.14c-128.44,1.34-138.2-108.37-133-150.42Z"/><path class="cls-3" d="M236.55,677.26a4.87,4.87,0,0,1-2.83.53l-5.1-.26.44-6.36,5.05.27a5.29,5.29,0,0,1,2.28.56,3.3,3.3,0,0,1,.15,5.26m-8.56,10,.51-7.75,5.94.41a5.19,5.19,0,0,0,4.32-1.34,5.12,5.12,0,0,0,1.59-3.62,4.88,4.88,0,0,0-1.28-4,6.18,6.18,0,0,0-3.95-1.63l-8.49-.53-1.17,18.26,2.52.17"/><path class="cls-3" d="M247.3,672l6.22.07a6.66,6.66,0,0,1,2.12.43,2.64,2.64,0,0,1,1.41,2.66,2.86,2.86,0,0,1-1.05,2.53,5.07,5.07,0,0,1-2.8.66l-6-.07.06-6.28m-.1,16.17.06-7.79,5.83.08a5.53,5.53,0,0,1,2.33.34,2.47,2.47,0,0,1,1.32,2.37l.15,3.07c0,.73.06,1.18.1,1.48a3.21,3.21,0,0,0,.23.62h3.13l0-.4a1.6,1.6,0,0,1-.76-1.12,6.22,6.22,0,0,1-.19-1.55l-.06-2.44a3.43,3.43,0,0,0-.65-2.29,3.32,3.32,0,0,0-1.65-1.17,5.63,5.63,0,0,0,2-1.65,5.09,5.09,0,0,0,.68-2.75,4.29,4.29,0,0,0-2.6-4.31,9.12,9.12,0,0,0-3.56-.66l-8.76-.09-.07,18.32h2.52"/><path class="cls-3" d="M268,684.34a8.77,8.77,0,0,1-1.85-5.08c-.12-2.53.37-4.47,1.53-5.78a6.1,6.1,0,0,1,4.66-2.2,6,6,0,0,1,4.84,1.78,7.47,7.47,0,0,1,2.07,5.06,9.81,9.81,0,0,1-1.23,5.45,5.2,5.2,0,0,1-4.74,2.59c-2.37.12-4.15-.44-5.28-1.82m-3-11.53A11.61,11.61,0,0,0,266.05,686a8.94,8.94,0,0,0,7,2.39,8.67,8.67,0,0,0,7-3.46,11.25,11.25,0,0,0,1.75-7,9.78,9.78,0,0,0-2.24-6c-1.71-2-4.2-2.93-7.58-2.79-3.19.2-5.54,1.37-7.05,3.74"/><path class="cls-3" d="M62.36,557.51l.43,2.29a5.09,5.09,0,0,0-2.44,1.14c-1.08,1-1.45,2.52-1.08,4.58a7.84,7.84,0,0,0,.87,2.41,3,3,0,0,0,3.23,1.73,2.36,2.36,0,0,0,2-1.26,9.82,9.82,0,0,0,.58-3.12L66,562.7a10,10,0,0,1,.62-3.54,3.91,3.91,0,0,1,3.17-2.29,5.48,5.48,0,0,1,4.42,1,6.43,6.43,0,0,1,2.44,4.47,7.64,7.64,0,0,1-.52,5.06A5.25,5.25,0,0,1,72,570.18l-.41-2.31a6,6,0,0,0,2.17-1.18c.82-.91,1.06-2.23.75-4A4,4,0,0,0,73,559.74a3,3,0,0,0-2.32-.64,2.12,2.12,0,0,0-1.8,1.46,17.83,17.83,0,0,0-.43,3.41l-.13,2.67a6.71,6.71,0,0,1-.68,3A4.39,4.39,0,0,1,64.2,572a4.88,4.88,0,0,1-4.84-1.46,9.7,9.7,0,0,1-2.26-4.82,7.46,7.46,0,0,1,.82-5.56,5.88,5.88,0,0,1,4.44-2.63"/><path class="cls-3" d="M61.21,581.67l18-5.42,4.2,12.68-2.19.7L77.79,579.2l-5.48,1.65,3.18,9.64-2.1.66-3.15-9.66-6.1,1.83L67.62,594l-2.15.62-4.26-12.92"/><path class="cls-3" d="M69.19,603.66l16.58-8.79,1.77,3.1-11.4,12,16.64-2.85,1.72,3.07L78,619l-1.17-2,9.76-5.14c.35-.21.9-.51,1.69-.93s1.65-.83,2.52-1.28l-16.58,2.82L73,610.26l11.31-12-.54.28c-.36.2-1,.5-1.8,1a15,15,0,0,1-1.83,1l-9.73,5.22-1.2-2.07"/><path class="cls-3" d="M100.08,628.07a5,5,0,0,1-2.46-1.5L94.12,623l4.72-4.32,3.53,3.6a6.07,6.07,0,0,1,1.35,1.88,2.77,2.77,0,0,1-1,3,2.93,2.93,0,0,1-2.64,1m-13.32,1.67,5.78-5.3,4.1,4.16a5.54,5.54,0,0,0,4.09,1.94,5.83,5.83,0,0,0,3.78-1.65,4.94,4.94,0,0,0,1.81-3.75,5.52,5.52,0,0,0-1.76-3.76l-5.89-6L85,628l1.77,1.78"/><path class="cls-3" d="M103.29,644.46l9.94-15.57L125,636l-1.23,1.85-9.65-5.78-3,4.72L120,642.2,118.84,644,110,638.63l-3.38,5.27,9.77,5.88-1.17,1.84Z"/><path class="cls-3" d="M132.7,641.45l6,1.9a4.78,4.78,0,0,1,1.87.95,2.64,2.64,0,0,1,.52,3,3,3,0,0,1-1.8,2.1,6.27,6.27,0,0,1-2.9-.22l-5.63-1.8,2-5.94m-5.16,15.3,2.48-7.42,5.56,1.81a4.67,4.67,0,0,1,2.08,1,2.42,2.42,0,0,1,.54,2.66l-.83,3c-.19.73-.29,1.2-.37,1.42a3.08,3.08,0,0,0,0,.64l2.93,1,.18-.43a1.51,1.51,0,0,1-.48-1.25c.07-.34.17-.88.36-1.51l.71-2.37a3.25,3.25,0,0,0-1.07-4,5.6,5.6,0,0,0,2.42-1,5.11,5.11,0,0,0,1.51-2.42,4.15,4.15,0,0,0-1.17-4.88,10.15,10.15,0,0,0-3.16-1.74l-8.35-2.57L125.1,656l2.44.75"/><path class="cls-3" d="M349.82,645.19a9.31,9.31,0,0,1,4.67.34,6.69,6.69,0,0,1,4.19,4.55l-2.52.3a4.77,4.77,0,0,0-2.33-2.63,6.94,6.94,0,0,0-3.76-.41,5.87,5.87,0,0,0-4.11,2.42,8.22,8.22,0,0,0-.93,5.93,8.72,8.72,0,0,0,2.28,5c1.14,1.22,2.83,1.67,5.06,1.4a6.15,6.15,0,0,0,4-2c1-1.07,1.32-2.72,1-4.85l-5.89.8-.27-2,8.2-1.1,1.42,9.71-1.63.22-1-2.25a9.64,9.64,0,0,1-2,2.2,9.52,9.52,0,0,1-10.13.12,9.91,9.91,0,0,1-3.66-6.82,10,10,0,0,1,1.47-7.59,8,8,0,0,1,5.9-3.37"/><path class="cls-3" d="M368.34,644.11l5.89-2a4.5,4.5,0,0,1,2.11-.29,2.62,2.62,0,0,1,2.28,2,2.86,2.86,0,0,1-.11,2.72,5,5,0,0,1-2.46,1.57L370.5,650l-2.16-5.9m5.58,15.24L371.19,652l5.49-1.87a6.29,6.29,0,0,1,2.27-.41,2.73,2.73,0,0,1,2.16,1.87l1.19,2.82a5.1,5.1,0,0,0,.64,1.32,1.65,1.65,0,0,0,.39.56l3-1-.15-.4a1.41,1.41,0,0,1-1.16-.75c-.23-.34-.44-.83-.74-1.41l-.92-2.31a4.6,4.6,0,0,0-1.37-2,4.67,4.67,0,0,0-1.94-.57,4.46,4.46,0,0,0,1-5,4.47,4.47,0,0,0-4-3.22,8.8,8.8,0,0,0-3.56.54l-8.28,2.78,6.33,17.35,2.43-.85"/><path class="cls-3" d="M395.52,650.67l-10.17-15.44,11.6-7.11,1.24,1.87-9.51,5.83,3.13,4.72,8.78-5.43,1.15,1.81L393,642.35l3.45,5.2,9.68-5.94,1.23,1.82-11.81,7.24"/><path class="cls-3" d="M405.16,623.89l3-3.25a5.23,5.23,0,0,1,4.51-1.86,10.3,10.3,0,0,1,7.7,6.76,5,5,0,0,1-.25,3,7.52,7.52,0,0,1-1.28,1.68l-3.07,3.21-10.66-9.61m15.7,7.47a6.64,6.64,0,0,0,1.49-7.69,13.07,13.07,0,0,0-3.27-4.41,10.11,10.11,0,0,0-6-2.84,7.1,7.1,0,0,0-6.11,2.44l-5.21,5.39,13.87,12.55,5.21-5.41"/><path class="cls-3" d="M432,617.32,416,607.5l1.36-2.08,16.07,9.77-1.37,2.15"/><path class="cls-3" d="M438.6,606.37l-17.38-7.32,5.39-12.23,2.11.86-4.4,10.07,5.24,2.17,4.11-9.27,2,.87-4.07,9.26,5.86,2.5L442,593.09l2.11.84-5.49,12.44"/><path class="cls-3" d="M447,585l-18.35-4.41.67-2.84,17.12-5.44-14.88-3.57.58-2.22,18.35,4.3-.63,2.75-17.16,5.56,14.89,3.51-.57,2.36"/><path class="cls-3" d="M446,561.6l.28-2.32a5.33,5.33,0,0,0,2.65-.45q2-1.05,2.39-4.09a7.06,7.06,0,0,0-.13-2.58,2.92,2.92,0,0,0-2.58-2.55,2.56,2.56,0,0,0-2.3.65,9.15,9.15,0,0,0-1.42,2.85l-.89,2.4a10.26,10.26,0,0,1-1.65,3.25,3.9,3.9,0,0,1-3.69,1.37,5.48,5.48,0,0,1-4-2.2,6.23,6.23,0,0,1-1.07-4.94,8.1,8.1,0,0,1,2-4.73,5.23,5.23,0,0,1,4.73-1.43l-.23,2.31a4.11,4.11,0,0,0-2.41.54c-1.07.57-1.68,1.8-1.89,3.61a4.44,4.44,0,0,0,.57,3.28,3.15,3.15,0,0,0,2.11,1.15,2.15,2.15,0,0,0,2.12-.85A14.74,14.74,0,0,0,442,553.7l.87-2.52a7.91,7.91,0,0,1,1.53-2.68,4.77,4.77,0,0,1,4.05-1.32,4.92,4.92,0,0,1,4.21,2.7,10,10,0,0,1,.75,5.27,7.53,7.53,0,0,1-2.39,5.09,6.3,6.3,0,0,1-5,1.36"/></g></svg>