<svg id="Layer_1" data-name="Layer 1" xmlns="http://www.w3.org/2000/svg" xmlns:xlink="http://www.w3.org/1999/xlink" viewBox="0 0 1500 1000"><defs><style>.cls-1,.cls-13{fill:none;}.cls-2{clip-path:url(#clip-path);}.cls-3{fill:#012169;}.cls-4{clip-path:url(#clip-path-2);}.cls-5,.cls-8{stroke:#fff;}.cls-5,.cls-7,.cls-8,.cls-9{stroke-miterlimit:8;}.cls-5,.cls-9{stroke-width:94.48px;}.cls-6{clip-path:url(#clip-path-3);}.cls-7,.cls-9{stroke:#c8102e;}.cls-7{stroke-width:62.99px;}.cls-8{stroke-width:157.47px;}.cls-10,.cls-15{fill:#f7e017;}.cls-10,.cls-11,.cls-12,.cls-13,.cls-14,.cls-16,.cls-17,.cls-18,.cls-19{stroke:#000;stroke-miterlimit:160;stroke-width:0.6px;}.cls-11{fill:#337321;}.cls-12{fill:#316d3a;}.cls-14{fill:#006ec7;}.cls-16{fill:#fff;}.cls-17{fill:#e5e5e5;}.cls-18{fill:#96877d;}.cls-19{fill:#c8102e;}</style><clipPath id="clip-path"><rect class="cls-1" width="1500" height="1000"/></clipPath><clipPath id="clip-path-2"><rect class="cls-1" width="944.8" height="472.4"/></clipPath><clipPath id="clip-path-3"><path class="cls-1" d="M0,0V236.2H1102.26V472.4H944.8ZM944.8,0H472.4V629.86H0V472.4Z"/></clipPath></defs><g class="cls-2"><rect class="cls-3" x="-44.31" y="-33.33" width="1588.61" height="1066.65"/><g class="cls-4"><path class="cls-5" d="M0,0,944.8,472.4M944.8,0,0,472.4"/><g class="cls-6"><path class="cls-7" d="M0,0,944.8,472.4M944.8,0,0,472.4"/></g><path class="cls-8" d="M472.4,0V629.86M0,236.2H1102.26"/><path class="cls-9" d="M472.4,0V629.86M0,236.2H1102.26"/></g><path class="cls-10" d="M1091.35,711.59c-12.79,10.84-25,26.67-28,41-8.44,40.26-19.63,49.21-36.9,40.58,0,21.63,19,23.27,27.26,10.63,0,20.27,7.36,37.86,24,52.86,7,6.31,8.31,2,5-5s-3.32-29.59-10-42.54c10.64,7.64,26.27,3.32,25-17.63-13.63,8-27.19,7.68-28.59-11.31C1067.36,757.89,1076,725.55,1091.35,711.59Z"/><path class="cls-10" d="M1075.16,551.48c.92-8-.8-16.19-6.64-21.35-11.27-9.92-22.3-6.64-30.54,1.36-12.31-6.64-18.83,16.91-32.78,13,2.32,7.64,6,11,12.95,8.32-7.32,6.63,0,14.63-8.64,22.58,15.64,5,24-3.63,23.27-18.63,6,5.32,15.27,5,20.27-1-8.31-2.68-8.35-9.88-5-16.64C1053.05,529.13,1076.48,529.53,1075.16,551.48Z"/><path class="cls-11" d="M1111.22,667.14c-17.63,9.31-49.85,5.31-52.85-17.63s19.27-33.27,25.27-36.23c9.31-4.67,16.63,3.64,13.63,13.32C1107.58,623,1109.9,611,1104.9,604c13.64,1,26.27-9.32,31.59-24-4.8,4.56-17.83,1.48-28.55.8,3.32-3.64,3.28-10.75,2.28-14.43-11.27,11.59-27.58,6.28-49.17,39.86,3.32-11.64,9.63-34.9,13.31-50.21a44.32,44.32,0,0,0,.84-4.6c1.28-22-22.11-22.35-27.11-12.36,5.48,6.16,2.6,13.36.64,24.27-2.31,13-7.31,42.9-11.63,52.85-1.32-15.63-11.63-16.63-13.63-24.26-3,2-4.64,7.31-4,10.95-3.68-4-16.31,1-21-5-5,10,3,20,11.31,24.27-4.83.32-6,6.16-11.31,6.16,7.16,8.31,14.47,11.63,23,12.31s14.79,3.84,20,14.11C1049.73,671.45,1081.4,682.25,1111.22,667.14Z"/><path class="cls-10" d="M1155.12,646.83c-10,27.58-37.22,47.21-49.54,50.21-20.95,5.08-63.64,25.83-75.08,36.5a13.24,13.24,0,0,1-4.71-1.92c-5.64-4-10.32-17-.32-27.94,31.26-29.27,64.84-16.63,85.79-36.58-17.63,9.31-49.85,5.31-52.85-17.63,18.95,5,53.21,5.31,80.44-24C1142.48,629.56,1153.12,642.19,1155.12,646.83Z"/><path class="cls-11" d="M1091.35,711.59c-15.79,13.4-24,46.3-22.31,68.57.48,6.19,2.2,10.39,4.84,13,1.16-12.63,10-45.3,32.38-59.85,19-12.31,48.54-39.9,59.53-71.48-2-5.64-5.32-9.64-11.63-13.63C1143.24,678,1114.1,692.28,1091.35,711.59Z"/><path class="cls-12" d="M1145,634c-5.63,8.48-18.47,20.11-30.74,24.79a16.13,16.13,0,0,0,3.64-10c-15.63,6-46.9,5.31-59.53.68,19,5,53.21,5.31,80.44-23.95C1141.48,628.56,1143.8,631.2,1145,634Z"/><path class="cls-11" d="M1025.47,703.68c-25.43,23.78-8.64,44.53,1.32,49.21-2.64,16.63,13,14.63,12.63,28.59,6.32-3.64,8-13.32,7-21,8,8.63,28.26-1,32.58,15,2.68-17.63-11-35.22-27.91-33.58,7-6.32,3-16.63-3.64-19.27-1.31,13-16,13-21.62,9S1015.47,714.67,1025.47,703.68Z"/><path class="cls-10" d="M1080.48,855c-2.76,1.6-2.56,5.15-.84,7.47,3.48,4.64-2.48,15.19,8.79,17.47,3.32.68,5.88-1.36,7.16-5.15,3.48-10.48-7.64-11.64-8.64-16.64S1082.8,853.64,1080.48,855Z"/><path class="cls-10" d="M1090,874.59c-3.72,1.71-7,4.15-5.47,16.11.59,4.95.31,16.95-4,17.11,2.64,1.32,8.31,2.76,10.63-.32,2.24,3.76,7.32,2.68,9.32-2,2.64,2.16,6.31-1.48,6.31-4.64,2.32,1.48,7-.68,5.8-7.79,2.84,1,6.48-1,7.8-2.84-4.16-.84-14.64-6.48-17.11-11S1094.27,872.59,1090,874.59Z"/><path class="cls-13" d="M1032.34,538.32a45,45,0,0,1,5.64-6.83"/><path class="cls-13" d="M1095.59,582.34c2.92-1.68,7.4-1.88,12.35-1.56"/><path class="cls-13" d="M1091.11,907.49c-1.16-1.68-1.6-8.64-.76-12.87"/><path class="cls-13" d="M1100.43,905.49a19.71,19.71,0,0,1-5.92-10.48"/><path class="cls-13" d="M1106.74,900.85c-2.32-1.08-8-8.39-9.23-13.11"/><path class="cls-13" d="M1112.54,893c-2.76-.6-11.15-6.08-14.63-11.88"/><path class="cls-10" d="M1265.82,704c40.9,34.26,43.54,61.48,37.22,77.48-3.32-15-20.27-38.22-37.9-44.22Z"/><path class="cls-11" d="M1192.7,684.73h75.8v89.75c0,76.48-42.54,121.69-85.8,145.6-43.21-24-85.79-69.16-85.79-145.6V684.73h53.21c.08,4.63.52,11.63,6,18.63C1168.67,702.12,1182.86,692.72,1192.7,684.73Z"/><path class="cls-14" d="M1268.5,684.73v89.75c0,23.07-3.88,43.34-10.48,61l-75.28-138.13-75.28,138.13c-6.59-17.67-10.47-37.9-10.47-61V684.73Z"/><path class="cls-15" d="M1260.3,828.85c-1.32,4.08-3.76,10.67-5.6,14.75l-72-133.77-72,133.77c-1.88-4.08-4.28-10.67-5.6-14.75L1182.78,685Z"/><path class="cls-10" d="M1216.92,878.06c2,1,5.68,2.84,7.32,3.52,4-8,4.64-19.27,3.32-29.26-4.32,11-19,10.63-23,17.27a53.21,53.21,0,0,1,6.68,4.24c-5,5-16.67,13.35-23.31,15.35V817.86c0-5-1.68-9.16-1.68-13.32V789.79c0-3.32-.68-8.15-3.64-8.15s-3.64,4.83-3.64,8.15v14.75c0,4.16-1.67,9-1.67,13.32v71.32c-3.64-10.64-18-7-24.63-17.63a18.59,18.59,0,0,1,8-.32c-5-17-18.63-18.27-21.26-23.27,0,7-3,23.27,1.68,30.26a17.23,17.23,0,0,1,4.51-3.67c5.64,12.31,31.07,12.35,37.06,32.62C1187.5,899.69,1204.81,891.06,1216.92,878.06Z"/><path class="cls-10" d="M1182.7,818.74c5.64,0,23.59-1.84,30.11-1.84,1.68,0,3.08-2.52,3.08-5.64s-1.36-5.64-3.08-5.64c-6.48,0-24.43-1.84-30.11-1.84s-23.58,1.84-30.1,1.84c-1.68,0-3.08,2.52-3.08,5.64s1.36,5.64,3.08,5.64C1159.12,816.9,1177.07,818.74,1182.7,818.74Z"/><path class="cls-10" d="M1179.06,789.51a7.14,7.14,0,0,0-4.51-1.56c-3.76,0-6.84,2.8-6.84,6.24s3,6.24,6.84,6.24a6.53,6.53,0,0,0,6.79-6.24,1.94,1.94,0,1,1,3.88,0c0,5.4-4.8,9.75-10.67,9.75s-10.68-4.35-10.68-9.75,4.8-9.76,10.68-9.76a11.73,11.73,0,0,1,4.91,1.08A30.47,30.47,0,0,0,1179.06,789.51Z"/><path class="cls-10" d="M1152.64,816.9c1.68,0,3-2.52,3-5.64s-1.36-5.64-3-5.64"/><path class="cls-10" d="M1155.12,816.9c1.68,0,3-2.52,3-5.64s-1.36-5.64-3-5.64"/><path class="cls-10" d="M1171.55,818.06c2,0,3.68-3,3.68-6.8s-1.64-6.8-3.68-6.8"/><path class="cls-10" d="M1175.35,818.34c2.12,0,3.83-3.2,3.83-7.12s-1.71-7.12-3.83-7.12"/><path class="cls-10" d="M1188.14,818.42c2.16,0,3.88-3.24,3.88-7.2s-1.76-7.2-3.88-7.2"/><path class="cls-10" d="M1192.14,818.22c2.12,0,3.84-3.12,3.84-7s-1.72-7-3.84-7"/><path class="cls-10" d="M1210,817c1.72,0,3.12-2.56,3.12-5.76s-1.4-5.76-3.12-5.76"/><path class="cls-10" d="M1145.64,874.55a24.73,24.73,0,0,1,7.12-3"/><path class="cls-10" d="M1213.29,875.23c-.6-.44-1.28-.88-2-1.4"/><path class="cls-10" d="M1216.92,878.06A47.42,47.42,0,0,0,1227.6,861"/><path class="cls-16" d="M1167.47,748.21c0-1.64,1.32-2.32,2.88-3.48,1.88-1.39,2.64-2.07,4.32-2.07h21.83c1.59,0,2,.4,2,1.91V774.2c0,1.48-.36,1.92-2,1.92h-29V747.89"/><path class="cls-17" d="M1191.1,778.72c2.88,0,2.36-.08,4.36-2.08s1.91-1.92,1.91-3.84V745.65c0-1.39-.35-1.79-1.83-1.79h-20.19c-1.6,0-2.28.63-4,1.95-1.44,1.08-2.64,1.76-2.64,3.28v29.63Z"/><path class="cls-16" d="M1193.26,778.08c0,1.48-.36,1.92-2,1.92h-21.83c-1.64,0-2-.4-2-1.92V748.41c0-1.48.36-1.92,2-1.92h21.83c1.64,0,2,.4,2,1.92Z"/><path class="cls-18" d="M1235.55,667.34a16.73,16.73,0,0,1,3.32,17.35h-6.31c2.63-8,1-15.59-10.32-16.59-16.91-1.48-36.58,31.26-66.16,35.22-8.64-10.32-8.2-30,2.8-39.26-5.68-16.35-17.64-34.34-26-42.1a81.11,81.11,0,0,0-15.75-1.08c4.32-9.31,16.63-19.11,26.62-23.11,1.6-2.36,3.36-4.63,5-6.67,1-12.8,61.85-6.8,74.8,1.16C1223.6,606.61,1229.24,654.38,1235.55,667.34Z"/><path d="M1161.83,676.09c-1.44-22.15-10.39-40.42-23-52.85,6,1.68,18.27,1.68,26.58-4.32,11-7.31,39.58-20.11,50.06-14.63a16.59,16.59,0,0,1,.67,8.63c-2.47-6.63-30.1,3.64-37.89,6.8-7.48,3.48-10.8,8.16-8.16,18.63-4.32-3.64-2.84-7.15-7.32-9.79,1.8,4.31,3.28,12.11,3.8,18.43-1.68-4.48-4.64-14.12-11.15-19.79,5.63,10.95,10.55,37.3,8.23,51.29,4.48,0,14.4-4.4,18.35-7.56-3.48,5-13.55,8.48-20,9.8-2.91,3.48-4.91,12.47-4.75,17.47C1156.8,692,1158.72,677.05,1161.83,676.09Z"/><path d="M1235.55,667.34c-5.51-6.12-15.79-9.44-28.9-5.88a41.36,41.36,0,0,1,10.15-3.32c-.48-3.48-3.63-18.47-4.15-22.11l3.67-1.48c1.84,9,4.16,19.27,5.64,23.43a31,31,0,0,1,6.16,2c-1-3.48-6.64-28.58-6.48-31.26l5-2.68C1228.6,639.67,1231.76,659.46,1235.55,667.34Z"/><path class="cls-18" d="M1232.6,684.73c2.63-8,1-15.59-10.32-16.59-8.75-.76-18.27,7.75-29.5,16.59Z"/><path class="cls-18" d="M1159.12,613.08c-5,.68-16.12-.31-21.79-2.15a25.6,25.6,0,0,1,1.64-4.72c-3.48,2.32-10.12,6.87-12.64,10C1134.33,617.92,1150.8,618.76,1159.12,613.08Z"/><path class="cls-13" d="M1158.92,664.1a53.13,53.13,0,0,1,3.19,15"/><path class="cls-13" d="M1143.84,597.81c-3,4.4-5.63,9.12-6.51,13.12,5.63,1.84,16.79,2.83,21.79,2.15"/><path class="cls-13" d="M1133,622a57.7,57.7,0,0,1,5.88,1.24c6,1.68,18.27,1.68,26.58-4.32s30.91-24.59,56.53-26.58"/><path class="cls-13" d="M1126.37,616.24c8,1.68,24.47,2.48,32.75-3.16,19.27-13.11,37.9-20.78,56.53-21.78"/><path class="cls-11" d="M1265.82,704c27.9,19.27,48.53,37.9,54.53,67.8s17.31,37.9,31.26,29.9c-3.32,17.28-20.63,19.27-35.22,6,1.32,20-6.63,43.9-27.26,52.53-1.32-11.95,6.59-21.43,4.31-31.26-1-4.32-1.32-14.31,4.32-19-11,3.64-28.26-3.32-29.9-19.63,12.63,6,28.9,7,35.22-9S1306.72,738.26,1265.82,704Z"/><path class="cls-11" d="M1301.08,548.44c8.64-22.59,31.26-20.27,38.9-10.64,22.27-12.63,25.27,16,44.22,10.32-.32,5.32-6.64,10.31-13.64,10,7.32,6.64-3,16.64,12.64,22.59-13.32,6.64-31.91-.32-36.9-18.63-4.32,8.64-20,8.64-26.27,1.68,13.63-3.64,12.63-16.27,5-21.27S1303.72,539.44,1301.08,548.44Z"/><path class="cls-11" d="M1233.64,598.21c6.19,20,19,38.62,32.86,51.3,16,14.63,40.06,11,53.53-3,.32,27.82-28.51,30-44.54,21.27-7.07-3.84-12.79-1.84-6,4.31,10.31,9.32,32.86,16.23,59.49,21.95,46.53,10,29.94,46.9,16.31,46.54,3.91-.08,7.11-4.16,1.48-9.24-40.38-36.34-122.5-22-121.18-103.14-8.64,21.27-44.22,12.95-27.59-12.32,5.32,4.32,14.64,4.64,17.32-2,2.07-5.15.72-14.15-8.6-21.9,1.52-.12,4.84,0,4.48-3.84.4,2.24,2.44,5.56,7.67,4.44,1.48,2.35,3.08,3.91,5.2,3.07.4-.16,1.68-.8,1.16-3.15C1225.64,597,1230.88,598.53,1233.64,598.21Z"/><path class="cls-10" d="M1275.45,667.78c19.27,12.63,41.1,12.63,61.17-10.64,6.32-7.31,16.27-13.63,23.27-14.31s6.64-7.32,11.95-8.64c-3.32-1-4.64-5-9.63-4.47,12.47-4.32,8.79-14.32,15-19.11-5,1.84-12.79-5.64-20,3.83,1.84-4.31-.68-9.47-2.48-11.47.68,5-9.79,6-11.79,18.63-1.12,7.08-5,6.64-5.64-4.32-.48-8-4.32-30.26-9-41.54s-5.72-26.82.59-29.14a12.18,12.18,0,0,0-3.91-4.08c-7.72-5-21.27-3-24,6-8.64,22.59,15.63,35.58,13.63,60.17-3.64-18.27-33.26-23-32.9-40.9-9.63,4.32-8.32,12.31-4.64,18.63-6-9.32-19.63,6-31.26-6.64-1.32,16.63,13.31,23,25.27,23.59-6,10.63,2,19.63,10,22.59.32-18.63,38.5-11,38.9,20.95C1320.35,674.09,1291.09,676.41,1275.45,667.78Z"/><path class="cls-10" d="M1329,694c46.54,10,30,46.9,16.32,46.54-8.68-.2-17-7.48-17.47-13.8-10,5.32-7.32,15.8.32,20-21-2.47-29.75,11.32-30.27,26.43,3.84-7,15.47-7.48,19.79-6s15.47,2.32,19.95-2.68c-3.68,3.16,2.32,10.48-2.84,16.12,17.47-.68,25.11-17,22.11-24.11C1379.52,735.94,1375.2,702.36,1329,694Z"/><path class="cls-10" d="M1293.56,852c3,1.88,2.64,5.87.6,8.39-4.11,5,2.08,17.07-10.59,19.11-3.76.6-6.52-1.8-7.76-6.07-3.43-11.84,9-12.64,10.36-18.19S1291,850.4,1293.56,852Z"/><path class="cls-10" d="M1282.13,873.47c4.08,2.08,7.6,4.95,5.44,18.23-.92,5.51-1.12,18.91,3.72,19.27-3,1.36-9.4,2.68-11.88-.84-2.68,4.07-8.27,2.64-10.31-2.64-3.08,2.28-7-2-6.84-5.48-2.68,1.56-7.76-1-6.16-9-3.19,1-7.19-1.4-8.59-3.48,4.68-.76,16.59-6.6,19.59-11.52S1277.37,871.07,1282.13,873.47Z"/><path class="cls-13" d="M1279.37,910.17c1.36-1.8,2.16-9.6,1.4-14.36"/><path class="cls-13" d="M1269.1,907.53c2.12-1.48,6.19-6.72,7-11.44"/><path class="cls-13" d="M1262.22,902.05c2.64-1.12,9.28-9,10.87-14.27"/><path class="cls-13" d="M1256.06,893.1c3.08-.52,12.72-6.28,16.83-12.64"/><path class="cls-10" d="M1225.6,628.24c-.56,34.06,13.59,51.33,33.22,62.52-7.27-4.35-4.12-19.31-14-24.14,2.32-.16,6,3.15,11.79,1.84-2.84-6.32-7.47-16-18.27-17.28,2.84-.32,9,.68,13-.83C1245.71,641.67,1230.76,645.83,1225.6,628.24Z"/><path class="cls-10" d="M1222.08,595.81c-1.2-.4-2.2-1.6-3.2-3.15-5.23,1.12-7.27-2.2-7.67-4.44.32,3.84-3,3.68-4.52,3.8,9.35,7.75,10.71,16.75,8.64,21.9-2.68,6.64-12,6.32-17.32,2-.68,14.12,17.64,18.79,24.27,1,0,3,3.84,2.68,4.84,6.64C1231.84,615.92,1228.24,604.93,1222.08,595.81Z"/><path class="cls-11" d="M1192.86,528.33c-8.32-7.64-12.16-20.43-11.8-27.75s3.32-15.31,14-11.95c-3.32,0-1,6.64-4.48,7.32,2.84,1,6.64-1.32,7.15-2.84.68,2.32,5,1.68,5.32,4.32,1.68-1.32-.16-7.8-2.64-9.16,1.84-1,2.84-6.16,2-8.63-1.68.32-4.16,2.67-4.64,6,.84-2.68-.16-9.31-4.83-10.31-1.32,1.84-1.68,6.31.16,8.79-4.32-1-10.64,1.84-12.16,5.48.32-4.4,1-10.67,3.68-14.63.92-1.32-1.32-3.64-3.08-.48-3.23-6.32-11.87-9.64-15.71-6.48s-9-1.48-12.11,3.48-13.87,5.52-13.31,10.79c.32,3.16-.44,8-2,9.8-3.84,4.32,1.84,7.48,2.83,11.31-.67-12.63,19.43-37.22,39.58-27.58-1.84,3.16-3.43,9.47-4,17.11-.84,11.31.84,27.26,11.79,36.58Z"/><path class="cls-19" d="M1198.81,488.75c-.12-3,5.08-6.88,12-6.8,8.39.08,14.87,7.72,21.59,7s3.39,3,2,4a3.91,3.91,0,0,0-1.76,4.32c.48,1.84-.36,3-3.08,1.32-6-3.76-12,1.47-19.87-1.4C1203,494.63,1199,493.23,1198.81,488.75Z"/><path class="cls-18" d="M1164.59,567.23c-3.32-10.48-15.95-22-22.11-24.59l-.32-5.63c3.32-1.32,11.32-7.64,15-11.16,24.94,11.95,58.85-5,74.48-22.59l6,3.64-3,4-3.16-1.68c-3.84,4.64-18.11,18.07-22.43,20.91,5.8,1.48,13.75,2.48,16,2.36,14-10,24.91-19,30.22-19.63l4.48,6-4,2.84-3.15-1.84c-15,12.32-31.91,39.22-38.58,57.17C1204.65,575,1171.39,576.34,1164.59,567.23Z"/><path class="cls-13" d="M1209,530.13a24.27,24.27,0,0,1-5.16-1.8c-2.68,2.48-9.31,4.64-17.79,5"/><path class="cls-13" d="M1165.91,563.55c-2.24-12.39,1.32-26.1,7.64-30.26,13.79,9.15,37.42,9.15,51.37-.84"/><path class="cls-13" d="M1165.91,557.07c10.64-.32,33.74,1.48,39.38,2.32s15.11,3.16,13.79,6"/><path class="cls-13" d="M1170.83,555.32l3.08-3-3.08-3-3,3Z"/><path class="cls-11" d="M1178.07,493.43c-3.84-5.32-14.36-7-16.64.16-1,3.16-2.47,6.47-5,8s-1.92,6-.84,8c2.64,4.84.32,9.47,5.47,12.63,0-3.83,5.64-7.79,10.48-8.79s12.11-5.32,13.11-10.16S1187.38,494.39,1178.07,493.43Z"/><path class="cls-18" d="M1154.12,541.28h1.32l0,9.08a3,3,0,0,1,.8.4l7.83-4.52.68,1.16-7.87,4.56a3.25,3.25,0,0,1,0,.88l7.83,4.51-.68,1.16L1156.2,554a1.9,1.9,0,0,1-.76.48v9h-1.32v-9.07a3,3,0,0,1-.8-.4l-7.84,4.51-.68-1.16,7.88-4.55a3.25,3.25,0,0,1,0-.88l-7.84-4.52.68-1.16,7.88,4.52a1.9,1.9,0,0,1,.76-.48v-9.08Z"/><path class="cls-18" d="M1166,563.51a15.77,15.77,0,1,1,1.32-20.67,35.48,35.48,0,0,0-1.84,8.44,10.76,10.76,0,1,0-10.71,11.83,11,11,0,0,0,10.51-8.07C1165.27,557.11,1165.35,561.87,1166,563.51Z"/><path class="cls-11" d="M1148.12,578.5c-1-1.16-2.84-4.31-2.64-6.63a8.7,8.7,0,0,1,5.64,2.16c-.16-1.68-.84-5.32-.48-7,1.84.68,5.64,2.84,7,5.32-.32-1.68-1-6-.32-8.64,2,1.16,5.31,4.32,6,6.48.16-3.32,1.32-8.8,2.32-10.16,1.48,1.48,3.84,2.84,5.32,4.84.32-2.68,1.68-5.84,3.64-6.64a19.23,19.23,0,0,1,4.31,9.8c1.48-.48,3.48-3,4.32-4.32a9.12,9.12,0,0,1,1.16,6.48c1.84-1.68,4-4,4.48-6,1.32,1,3.84,3.48,4.48,6.16-.32-2.16-.16-6-.84-8.16a9.58,9.58,0,0,1,5,6.16c.68-2.32,2.16-6.48,3.48-7.48,1.32,2.68,2.68,5.84,2.48,8.48.84-1.68,2.16-4.64,3.48-5.32,1.16,1.84,1,5.84.68,8a16,16,0,0,1,4.64-4.32,13.94,13.94,0,0,1,0,4.48c1.48-.84,4-5.32,4.83-7.64,2.32,1.16,4.64,5.16,4.84,7.16a18.09,18.09,0,0,0,6-5.32c0,1.16.52,4.32-.16,6.8a19.87,19.87,0,0,0,2.48-3.84c.68,1.68.16,5.64-.52,7.79a8.74,8.74,0,0,1,5-2.15c.15,2.83-1.84,7.79-3.68,11.47C1215.13,582,1181.7,580.34,1148.12,578.5Z"/><path class="cls-15" d="M1203.77,490.47c-.08-1.24,2.64-4,7.56-4,5.87,0,11.31,4.36,16,4s2.4,1.24,1.4,1.64-1.56,1-1.24,1.76-.24,1.24-2.16.56c-4.2-1.52-8.4.6-13.91-.56C1206.65,492.87,1203.89,492.31,1203.77,490.47Z"/><path class="cls-10" d="M1153.28,588.5c-5,6-10,5-11,1.16s2.68-5.64,1.32-9,2.16-4.84,3.84-3.32,7-3.31,9.32,1.68,4.15,8.48,2.84,10.48S1154.28,590.5,1153.28,588.5Z"/><path class="cls-10" d="M1174.71,579.5c-.92-2.2,4.23-6.39,6.91-3.4s6.84-3.23,9.16,1.48,3.08,7.24,4.24,9.88-6.32,4.08-8.64,1.76c.32,1.56-6.48,2.8-8.31-1.68C1177.07,585.18,1176,582.42,1174.71,579.5Z"/><path class="cls-10" d="M1209.29,582.26c-1.24-2.32,4.84-5.64,8-1.4.84-1.76,6.84-2.08,7.24,3s.6,8.08.76,10.08-3.64,3.83-6.4-1.24c-4.91,1-7.15-1.76-7.71-4.64A21.64,21.64,0,0,0,1209.29,582.26Z"/><path class="cls-11" d="M1156.52,578.94c-.76-1.68,4.23-5,7.63-2.48s8.12-2.15,10.16,2.32c4.08,9.08,4.31,9.72,3.08,11.48s-6.56,1.08-7.92-1.32c-.24,1.68-4.84,1.4-7.24.08C1159.52,587.5,1157.6,581.94,1156.52,578.94Z"/><path class="cls-11" d="M1191.5,579.34c-1.16-2.56,6.63-4.83,10.07-.32,1.76-1.6,5.56-1.68,7.72,3.24s2.48,7.64.92,8.88c-1.12.88-5.16,1.56-6.48-.68-1.84,1.16-7.47.16-8.71-3A83,83,0,0,0,1191.5,579.34Z"/><path class="cls-11" d="M1224.6,584.26c-.16-2.32,4.08-3.4,5.64,0s6.63.32,7.07,6c.08,1.08-.6,5.23-2.16,7.23s-9.31,0-9.79-4.23S1224.68,586.58,1224.6,584.26Z"/><path class="cls-13" d="M1153.28,588.5c-1.84-2.48-4.32-6.48-7.48-2.16"/><path class="cls-13" d="M1169.51,588.9a19.61,19.61,0,0,1-3-5.56"/><path class="cls-13" d="M1186.38,589.26a13.8,13.8,0,0,1-3.84-4.24"/><path class="cls-13" d="M1184.86,580.5c2.92.32,4.92,3.08,5.8,4.32s2.84,3.48,4.32,3.76"/><path class="cls-13" d="M1203.73,590.5a16,16,0,0,1-2.24-4.16"/><path class="cls-13" d="M1201.57,579a19.34,19.34,0,0,1,2.32,3.92"/><path class="cls-13" d="M1218.84,592.66c-1.32-2.48-3.39-4.92-5.15-5.72"/><path class="cls-13" d="M1218.2,583.5c.16,4.92,6.72,5.24,7,8.72"/><path class="cls-13" d="M1230.24,584.26a9.51,9.51,0,0,1,1,4.56"/></g></svg>